<?xml version="1.0" encoding="UTF-8"?>
<svg width="22px" height="22px" viewBox="0 0 22 22" version="1.1" xmlns="http://www.w3.org/2000/svg" xmlns:xlink="http://www.w3.org/1999/xlink">
    <!-- Generator: Sketch 61.2 (89653) - https://sketch.com -->
    <title>ic_close</title>
    <desc>Created with Sketch.</desc>
    <g id="Page-1" stroke="none" stroke-width="1" fill="none" fill-rule="evenodd">
        <g id="ic_close" fill="#FF0000" fill-rule="nonzero">
            <path d="M14.71,7.29 C14.3199625,6.90227641 13.6900375,6.90227641 13.3,7.29 L11,9.59 L8.71,7.29 C8.31787782,6.89787785 7.68212219,6.89787787 7.29000003,7.29000003 C6.89787787,7.68212219 6.89787785,8.31787782 7.29,8.71 L9.59,11 L7.29,13.29 C7.00462384,13.5343899 6.88031806,13.9181184 6.96818987,14.283419 C7.05606167,14.6487195 7.34128045,14.9339383 7.70658103,15.0218101 C8.0718816,15.1096819 8.45561012,14.9853762 8.7,14.7 L11,12.41 L13.29,14.7 C13.6867603,15.0397768 14.2781942,15.0169323 14.6475632,14.6475632 C15.0169323,14.2781942 15.0397768,13.6867603 14.7,13.29 L12.41,11 L14.7,8.71 C14.8906411,8.52356992 14.998931,8.26872275 15.0008336,8.00208316 C15.0026865,7.73544357 14.8979965,7.47909655 14.71,7.29 Z" id="Path"></path>
            <path d="M11,0 C4.92486775,0 0,4.92486775 0,11 C0,17.0751322 4.92486775,22 11,22 C17.0751322,22 22,17.0751322 22,11 C22,8.08261861 20.8410748,5.28472557 18.7781746,3.22182541 C16.7152744,1.15892524 13.9173814,0 11,0 Z M11,20 C6.02943725,20 2,15.9705627 2,11 C2,6.02943725 6.02943725,2 11,2 C15.9705627,2 20,6.02943725 20,11 C20,15.9705627 15.9705627,20 11,20 Z" id="Shape"></path>
        </g>
    </g>
</svg>