<?xml version="1.0" encoding="UTF-8" standalone="no"?>
<svg width="14px" height="14px" viewBox="0 0 14 14" version="1.1" xmlns="http://www.w3.org/2000/svg" xmlns:xlink="http://www.w3.org/1999/xlink">
    <!-- Generator: Sketch 47.1 (45422) - http://www.bohemiancoding.com/sketch -->
    <title>ic_facebook</title>
    <desc>Created with Sketch.</desc>
    <defs></defs>
    <g id="Page-1" stroke="none" stroke-width="1" fill="none" fill-rule="evenodd">
        <g id="homepage_02" transform="translate(-1241.000000, -16.000000)" fill="#3B5998">
            <g id="header" transform="translate(0.000000, 12.000000)">
                <g id="follow-us" transform="translate(1170.000000, 0.000000)">
                    <path d="M84.227375,4 L71.772625,4 C71.345625,4 71,4.345625 71,4.772625 L71,17.227375 C71,17.654375 71.345625,18 71.772625,18 L78.47775,18 L78.47775,12.5785 L76.6525,12.5785 L76.6525,10.46625 L78.47775,10.46625 L78.47775,8.906125 C78.47775,7.098375 79.582,6.114875 81.1955,6.114875 C81.968125,6.114875 82.63225,6.170875 82.825625,6.197125 L82.825625,8.087125 L81.705625,8.087125 C80.830625,8.087125 80.66,8.507125 80.66,9.119625 L80.66,10.467125 L82.75125,10.467125 L82.48,12.584625 L80.66,12.584625 L80.66,18 L84.227375,18 C84.654375,18 85,17.654375 85,17.227375 L85,4.772625 C85,4.345625 84.654375,4 84.227375,4" id="ic_facebook"></path>
                </g>
            </g>
        </g>
    </g>
</svg>