<?xml version="1.0" encoding="UTF-8"?>
<svg width="14px" height="14px" viewBox="0 0 14 14" version="1.1" xmlns="http://www.w3.org/2000/svg" xmlns:xlink="http://www.w3.org/1999/xlink">
    <!-- Generator: Sketch 53 (72520) - https://sketchapp.com -->
    <title>Instagram_logo_2016</title>
    <desc>Created with Sketch.</desc>
    <defs>
        <radialGradient cx="26.5626266%" cy="107.702106%" fx="26.5626266%" fy="107.702106%" r="99.107386%" gradientTransform="translate(0.265626,1.077021),scale(0.999727,1.000000),rotate(-90.000000),translate(-0.265626,-1.077021)" id="radialGradient-1">
            <stop stop-color="#FFDD55" offset="0%"></stop>
            <stop stop-color="#FFDD55" offset="10%"></stop>
            <stop stop-color="#FF543E" offset="50%"></stop>
            <stop stop-color="#C837AB" offset="100%"></stop>
        </radialGradient>
        <radialGradient cx="-16.7505274%" cy="7.20383154%" fx="-16.7505274%" fy="7.20383154%" r="44.3018739%" gradientTransform="translate(-0.167505,0.072038),scale(0.999727,1.000000),rotate(78.677638),translate(0.167505,-0.072038)" id="radialGradient-2">
            <stop stop-color="#3771C8" offset="0%"></stop>
            <stop stop-color="#3771C8" offset="12.8%"></stop>
            <stop stop-color="#6600FF" stop-opacity="0" offset="100%"></stop>
        </radialGradient>
    </defs>
    <g id="Page-1" stroke="none" stroke-width="1" fill="none" fill-rule="evenodd">
        <g id="Instagram_logo_2016" fill-rule="nonzero">
            <path d="M6.95019847,0 C4.04952672,0 3.20119084,0.00299236641 3.03629008,0.0166717557 C2.4410229,0.0661526718 2.07061069,0.159877863 1.6670687,0.360793893 C1.35607634,0.515221374 1.11080916,0.694229008 0.868748092,0.945160305 C0.427908397,1.40277863 0.160732824,1.96577099 0.0640152672,2.63499237 C0.0169923664,2.95987786 0.0033129771,3.0261374 0.000534351145,4.68561832 C-0.000534351145,5.23877863 0.000534351145,5.96677863 0.000534351145,6.94325191 C0.000534351145,9.84157252 0.00374045802,10.6890534 0.0176335878,10.8536336 C0.0657251908,11.4328702 0.156564885,11.7972977 0.348931298,12.1959237 C0.716564885,12.9589771 1.41870229,13.5318015 2.24587786,13.745542 C2.53229008,13.8192824 2.84862595,13.8598931 3.25473282,13.8791298 C3.42679389,13.8866107 5.18053435,13.8919542 6.93534351,13.8919542 C8.69015267,13.8919542 10.4449618,13.8898168 10.6127481,13.8812672 C11.0829771,13.859145 11.3560305,13.8224885 11.6579389,13.7444733 C12.490458,13.5296641 13.179771,12.9653893 13.5548855,12.1916489 C13.7435115,11.8026412 13.8391603,11.4243206 13.8824427,10.8753282 C13.8918473,10.7556336 13.8958015,8.84725191 13.8958015,6.94143511 C13.8958015,5.03529771 13.8915267,3.13044275 13.8821221,3.01074809 C13.8383053,2.4528855 13.7426565,2.07777099 13.5479389,1.68128244 C13.3881679,1.35671756 13.2107634,1.11433588 12.9532061,0.866503817 C12.4935573,0.427480916 11.9314198,0.160305344 11.2615573,0.0636946565 C10.9369924,0.016778626 10.8723359,0.00288549618 9.21157252,0 L6.95019847,0 Z" id="Path" fill="url(#radialGradient-1)"></path>
            <path d="M6.95019847,0 C4.04952672,0 3.20119084,0.00299236641 3.03629008,0.0166717557 C2.4410229,0.0661526718 2.07061069,0.159877863 1.6670687,0.360793893 C1.35607634,0.515221374 1.11080916,0.694229008 0.868748092,0.945160305 C0.427908397,1.40277863 0.160732824,1.96577099 0.0640152672,2.63499237 C0.0169923664,2.95987786 0.0033129771,3.0261374 0.000534351145,4.68561832 C-0.000534351145,5.23877863 0.000534351145,5.96677863 0.000534351145,6.94325191 C0.000534351145,9.84157252 0.00374045802,10.6890534 0.0176335878,10.8536336 C0.0657251908,11.4328702 0.156564885,11.7972977 0.348931298,12.1959237 C0.716564885,12.9589771 1.41870229,13.5318015 2.24587786,13.745542 C2.53229008,13.8192824 2.84862595,13.8598931 3.25473282,13.8791298 C3.42679389,13.8866107 5.18053435,13.8919542 6.93534351,13.8919542 C8.69015267,13.8919542 10.4449618,13.8898168 10.6127481,13.8812672 C11.0829771,13.859145 11.3560305,13.8224885 11.6579389,13.7444733 C12.490458,13.5296641 13.179771,12.9653893 13.5548855,12.1916489 C13.7435115,11.8026412 13.8391603,11.4243206 13.8824427,10.8753282 C13.8918473,10.7556336 13.8958015,8.84725191 13.8958015,6.94143511 C13.8958015,5.03529771 13.8915267,3.13044275 13.8821221,3.01074809 C13.8383053,2.4528855 13.7426565,2.07777099 13.5479389,1.68128244 C13.3881679,1.35671756 13.2107634,1.11433588 12.9532061,0.866503817 C12.4935573,0.427480916 11.9314198,0.160305344 11.2615573,0.0636946565 C10.9369924,0.016778626 10.8723359,0.00288549618 9.21157252,0 L6.95019847,0 Z" id="Path" fill="url(#radialGradient-2)"></path>
            <path d="M6.94699237,1.81679389 C5.55383206,1.81679389 5.37899237,1.8228855 4.83181679,1.84778626 C4.28570992,1.87279389 3.91294656,1.95925191 3.58677863,2.08610687 C3.24938931,2.21712977 2.96319084,2.39239695 2.67806107,2.67763359 C2.39271756,2.96276336 2.21745038,3.24896183 2.086,3.58624427 C1.95882443,3.91251908 1.87225954,4.28538931 1.84767939,4.83128244 C1.82320611,5.37845802 1.81679389,5.55340458 1.81679389,6.94656489 C1.81679389,8.33972519 1.82299237,8.51403053 1.84778626,9.06120611 C1.87290076,9.60731298 1.95935878,9.98007634 2.08610687,10.3062443 C2.21723664,10.6436336 2.39250382,10.9298321 2.67774046,11.2149618 C2.96276336,11.5003053 3.24896183,11.676 3.5861374,11.8070229 C3.91251908,11.9338779 4.28538931,12.0203359 4.83138931,12.0453435 C5.37856489,12.0702443 5.55329771,12.0763359 6.94635115,12.0763359 C8.33961832,12.0763359 8.51392366,12.0702443 9.06109924,12.0453435 C9.60720611,12.0203359 9.98039695,11.9338779 10.3067786,11.8070229 C10.6440611,11.676 10.9298321,11.5003053 11.214855,11.2149618 C11.5001985,10.9298321 11.6754656,10.6436336 11.806916,10.3063511 C11.9330229,9.98007634 12.0195878,9.60720611 12.0452366,9.06131298 C12.0698168,8.5141374 12.076229,8.33972519 12.076229,6.94656489 C12.076229,5.55340458 12.0698168,5.37856489 12.0452366,4.83138931 C12.0195878,4.28528244 11.9330229,3.91251908 11.806916,3.58635115 C11.6754656,3.24896183 11.5001985,2.96276336 11.214855,2.67763359 C10.9295115,2.39229008 10.6441679,2.2170229 10.306458,2.08610687 C9.97943511,1.95925191 9.60645802,1.87279389 9.06035115,1.84778626 C8.51317557,1.8228855 8.3389771,1.81679389 6.94538931,1.81679389 L6.94699237,1.81679389 Z M6.48680916,2.74122137 C6.62338931,2.74100763 6.77578626,2.74122137 6.94699237,2.74122137 C8.31664122,2.74122137 8.4789771,2.7461374 9.01984733,2.77071756 C9.52,2.79358779 9.79145038,2.87716031 9.97227481,2.94737405 C10.2116641,3.04035115 10.3823359,3.15149618 10.561771,3.33103817 C10.741313,3.51058015 10.852458,3.68157252 10.9456489,3.92096183 C11.0158626,4.10157252 11.099542,4.3730229 11.1223053,4.87317557 C11.1468855,5.41393893 11.152229,5.57638168 11.152229,6.94538931 C11.152229,8.31439695 11.1468855,8.47683969 11.1223053,9.01760305 C11.0994351,9.51775573 11.0158626,9.78920611 10.9456489,9.96981679 C10.8526718,10.2092061 10.741313,10.3796641 10.561771,10.5590992 C10.382229,10.7386412 10.211771,10.8497863 9.97227481,10.9427634 C9.79166412,11.0132977 9.52,11.0966565 9.01984733,11.1195267 C8.47908397,11.1441069 8.31664122,11.1494504 6.94699237,11.1494504 C5.57723664,11.1494504 5.41490076,11.1441069 4.8741374,11.1195267 C4.37398473,11.0964427 4.10253435,11.0128702 3.92160305,10.9426565 C3.68221374,10.8496794 3.51122137,10.7385344 3.33167939,10.5589924 C3.1521374,10.3794504 3.04099237,10.2088855 2.94780153,9.96938931 C2.87758779,9.78877863 2.7939084,9.51732824 2.77114504,9.01717557 C2.74656489,8.47641221 2.74164885,8.31396947 2.74164885,6.94410687 C2.74164885,5.57424427 2.74656489,5.41265649 2.77114504,4.87189313 C2.79401527,4.37174046 2.87758779,4.10029008 2.94780153,3.91946565 C3.04077863,3.68007634 3.1521374,3.50908397 3.33167939,3.32954198 C3.51122137,3.15 3.68221374,3.03885496 3.92160305,2.94566412 C4.10242748,2.87512977 4.37398473,2.79177099 4.8741374,2.76879389 C5.34735878,2.74741985 5.53074809,2.74100763 6.48680916,2.73993893 L6.48680916,2.74122137 Z M9.68522137,3.5929771 C9.34537405,3.5929771 9.06964885,3.86838168 9.06964885,4.20833588 C9.06964885,4.54818321 9.34537405,4.8239084 9.68522137,4.8239084 C10.0250687,4.8239084 10.3007939,4.54818321 10.3007939,4.20833588 C10.3007939,3.86848855 10.0250687,3.59276336 9.68522137,3.59276336 L9.68522137,3.5929771 Z M6.94699237,4.31221374 C5.49216794,4.31221374 4.31264122,5.49174046 4.31264122,6.94656489 C4.31264122,8.40138931 5.49216794,9.58038168 6.94699237,9.58038168 C8.40181679,9.58038168 9.58091603,8.40138931 9.58091603,6.94656489 C9.58091603,5.49174046 8.40170992,4.31221374 6.9468855,4.31221374 L6.94699237,4.31221374 Z M6.94699237,5.23664122 C7.89129771,5.23664122 8.65691603,6.00215267 8.65691603,6.94656489 C8.65691603,7.89087023 7.89129771,8.65648855 6.94699237,8.65648855 C6.00258015,8.65648855 5.2370687,7.89087023 5.2370687,6.94656489 C5.2370687,6.00215267 6.00258015,5.23664122 6.94699237,5.23664122 Z" id="Shape" fill="#FFFFFF"></path>
        </g>
    </g>
</svg>