<svg viewBox="0 0 100 123" xmlns="http://www.w3.org/2000/svg"><g fill="#fff" fill-rule="nonzero"><path d="M76.795 26.282h20.64c-.384-.641-.897-1.282-1.538-1.923L75.513 3.974C75 3.462 74.359 2.95 73.59 2.436v20.513c0 1.923 1.41 3.333 3.205 3.333zM46.795 46.026c-.128-.257-.385-.513-1.154-.513-.77 0-.897.256-.897.384-.77 1.795.128 5.77 1.923 10 1.154-5.384 1.025-8.59.128-9.871z"/><path d="M76.795 34.872A11.764 11.764 0 0165 23.077V.64H12.308C9.23.641 6.41 1.795 4.23 3.974c-2.18 2.18-3.334 5-3.334 8.077v98.846c0 6.282 5.129 11.41 11.41 11.41h75.514c6.282 0 11.41-5.128 11.41-11.41V34.872H76.795zm.384 47.307C75.385 83.974 72.95 85 70.513 85c-3.59 0-7.82-2.051-12.564-5.897-2.564.512-5.385 1.282-8.718 2.18-2.82.768-5.257 1.666-7.436 2.435-3.846 6.923-8.846 13.974-13.59 15.128-.513.128-1.026.257-1.538.257-1.282 0-2.436-.385-3.462-1.282-1.667-1.41-2.436-3.334-2.051-5.385 1.025-5.257 9.487-9.744 17.18-12.82 1.025-1.924 1.922-3.975 2.82-6.026 1.538-3.846 2.82-7.308 3.718-10.257-3.59-6.666-6.539-14.871-4.487-19.359 1.025-2.18 2.948-3.461 5.512-3.461 2.308 0 4.103.897 5.257 2.692 2.308 3.333 1.923 9.872-.898 19.616 1.282 2.179 2.693 4.23 3.975 5.64 1.795 1.924 3.59 3.718 5.256 5.129 10.257-1.795 17.051-1.026 19.103 2.307.256.77 1.41 3.334-1.41 6.282z"/><path d="M48.077 68.974c-.77 2.052-1.539 4.231-2.436 6.539-.256.64-.513 1.154-.77 1.795 1.155-.385 2.052-.641 2.95-.898 1.923-.513 3.846-1.025 5.512-1.538-1.025-.898-1.923-1.923-2.948-3.077-.641-.641-1.41-1.667-2.308-2.82zM25.897 93.462c.385.64.513.64.898.64 1.795-.512 4.359-3.076 6.923-6.923-5.128 2.565-7.564 5-7.82 6.283zM64.872 77.82c2.18 1.283 4.102 2.052 5.769 2.052 1.41.128 2.436-.257 3.077-1.282.641-1.026-2.692-1.41-8.846-.77z"/></g></svg>