<?xml version="1.0" encoding="UTF-8" standalone="no"?>
<svg width="15px" height="12px" viewBox="0 0 15 12" version="1.1" xmlns="http://www.w3.org/2000/svg" xmlns:xlink="http://www.w3.org/1999/xlink">
    <!-- Generator: Sketch 47.1 (45422) - http://www.bohemiancoding.com/sketch -->
    <title>ic_twitter</title>
    <desc>Created with Sketch.</desc>
    <defs></defs>
    <g id="Page-1" stroke="none" stroke-width="1" fill="none" fill-rule="evenodd">
        <g id="homepage_02" transform="translate(-1265.000000, -17.000000)" fill="#1DA1F2">
            <g id="header" transform="translate(0.000000, 12.000000)">
                <g id="follow-us" transform="translate(1170.000000, 0.000000)">
                    <path d="M109.748524,6.42971798 C109.203957,6.66969647 108.622471,6.83306644 108.00868,6.90690597 C108.633547,6.53124734 109.114427,5.93776208 109.340561,5.23074854 C108.755382,5.57225639 108.106517,5.82146482 107.416118,5.95991394 C106.864167,5.36919767 106.077776,5 105.204624,5 C103.532158,5 102.175357,6.35680144 102.175357,8.0274209 C102.175357,8.26739939 102.203047,8.49814793 102.253811,8.71966653 C99.7358831,8.59967729 97.5031602,7.39055492 96.0088326,5.56302645 C95.7467023,6.00698665 95.5990232,6.52386339 95.5990232,7.08688983 C95.5990232,8.1391032 96.1343598,9.06486635 96.9465947,9.60850992 C96.4500239,9.59281902 95.9820658,9.45621589 95.5741024,9.23008231 L95.5741024,9.26700208 C95.5741024,10.7345628 96.6170858,11.9602991 98.004346,12.2390433 C97.7495997,12.3073449 97.4819313,12.3442647 97.2059561,12.3442647 C97.0121273,12.3442647 96.8275285,12.3258048 96.6429296,12.290731 C97.0305872,13.4943154 98.1474101,14.3702369 99.4765218,14.3951577 C98.4427683,15.2073926 97.1321165,15.6910416 95.7199355,15.6910416 C95.479957,15.6910416 95.2399785,15.6771966 95,15.6495068 C96.3475715,16.5078914 97.9351215,17.0100002 99.6518907,17.0100002 C105.226775,17.0100002 108.272656,12.3950293 108.272656,8.39846456 C108.272656,8.26924537 108.272656,8.14002619 108.263426,8.010807 C108.854143,7.58622968 109.371019,7.05089306 109.777137,6.4417169 L109.748524,6.42971798 Z" id="ic_twitter"></path>
                </g>
            </g>
        </g>
    </g>
</svg>