<?xml version="1.0" encoding="UTF-8" standalone="no"?>
<svg width="19px" height="14px" viewBox="0 0 19 14" version="1.1" xmlns="http://www.w3.org/2000/svg" xmlns:xlink="http://www.w3.org/1999/xlink">
    <!-- Generator: Sketch 47.1 (45422) - http://www.bohemiancoding.com/sketch -->
    <title>ic_youtube</title>
    <desc>Created with Sketch.</desc>
    <defs></defs>
    <g id="Page-1" stroke="none" stroke-width="1" fill="none" fill-rule="evenodd">
        <g id="homepage_02" transform="translate(-1321.000000, -16.000000)" fill-rule="nonzero" fill="#FF0000">
            <g id="header" transform="translate(0.000000, 12.000000)">
                <g id="follow-us" transform="translate(1170.000000, 0.000000)">
                    <path d="M169.297162,6.01674787 C169.076912,5.22740508 168.460105,4.61059756 167.670762,4.39034838 C166.215134,4.00001251 160.351964,4.00001251 160.351964,4.00001251 C160.351964,4.00001251 154.505058,3.99188051 153.033167,4.39034838 C152.243824,4.61059756 151.627016,5.22740508 151.406767,6.01674787 C151.130671,7.50791963 150.994545,9.02163231 151.000167,10.5381385 C150.995557,12.0492132 151.131678,13.5574339 151.406767,15.0432651 C151.627016,15.8326078 152.243824,16.4494154 153.033167,16.6696645 C154.488794,17.0600004 160.351964,17.0600004 160.351964,17.0600004 C160.351964,17.0600004 166.19887,17.0600004 167.670762,16.6696645 C168.460105,16.4494154 169.076912,15.8326078 169.297162,15.0432651 C169.566797,13.5569231 169.697472,12.0487065 169.687497,10.5381385 C169.698484,9.02214076 169.567804,7.50843224 169.297162,6.01674787 Z M158.481605,13.3355456 L158.481605,7.73259934 L163.360803,10.5381385 L158.481605,13.3355456 Z" id="ic_youtube"></path>
                </g>
            </g>
        </g>
    </g>
</svg>